<?xml version="1.0" encoding="utf-8"?>
<!-- Generator: Adobe Illustrator 16.0.0, SVG Export Plug-In . SVG Version: 6.00 Build 0)  -->
<!DOCTYPE svg PUBLIC "-//W3C//DTD SVG 1.1//EN" "http://www.w3.org/Graphics/SVG/1.1/DTD/svg11.dtd">
<svg version="1.1" id="Logo" xmlns="http://www.w3.org/2000/svg" xmlns:xlink="http://www.w3.org/1999/xlink" x="0px" y="0px"
	 width="1417.3px" height="1417.3px" viewBox="0 0 1417.3 1417.3" style="enable-background:new 0 0 1417.3 1417.3;"
	 xml:space="preserve">
<style type="text/css">
<![CDATA[
	.st0{display:none;}
	.st1{display:none;fill-rule:evenodd;clip-rule:evenodd;}
]]>
</style>
<path class="st0" d="M702.2,487.9c-60.6,0-115.4,24.5-155,64.2c-39.7,39.7-64.2,94.5-64.2,155.1c0,60.5,24.5,115.4,64.2,155
	c39.7,39.7,94.5,64.2,155,64.2c60.6,0,115.4-24.5,155.1-64.2c39.7-39.7,64.2-94.5,64.2-155c0-60.6-24.5-115.4-64.2-155.1
	C817.5,512.4,762.7,487.9,702.2,487.9z M852.2,857.2c-38.4,38.4-91.5,62.2-150.1,62.2c-58.6,0-111.7-23.8-150.1-62.2
	c-38.4-38.4-62.2-91.5-62.2-150.1c0-58.6,23.8-111.7,62.2-150.1c38.4-38.4,91.5-62.2,150.1-62.2c58.6,0,111.7,23.8,150.1,62.2
	c38.4,38.4,62.2,91.5,62.2,150.1C914.4,765.8,890.6,818.8,852.2,857.2z M959.9,651.1c-8-12.2-17.1-26-24.5-45.6
	c-6.2-16.4-8.6-29.7-10.6-41.3c-3.6-20.2-6.3-35.4-25.3-54.3c-16.8-16.8-33.8-20.3-54.7-24.6c-14.3-2.9-30.5-6.3-49.6-14.9
	c-16.1-7.3-27.1-15-36.7-21.7c-16.8-11.7-29.4-20.5-56.1-20.6l-0.1,0l-0.1-0.8v0.8c-23.8,0-38.2,9.5-56.1,21.3
	c-12.2,8-26,17.2-45.6,24.5c-16.4,6.2-29.7,8.6-41.3,10.6c-20.1,3.6-35.3,6.3-54.3,25.3c-16.8,16.8-20.3,33.8-24.6,54.7
	c-2.9,14.3-6.3,30.5-14.9,49.6c-7.3,16.1-15,27.1-21.7,36.7c-11.7,16.8-20.5,29.4-20.6,56.1c0,0,0,0.1,0,0.1
	c0,23.8,9.6,38.2,21.3,56.1c8,12.2,17.1,26,24.5,45.6c6.2,16.4,8.6,29.7,10.6,41.3c3.6,20.2,6.3,35.3,25.3,54.3
	c16.8,16.8,33.8,20.3,54.7,24.6c14.3,2.9,30.5,6.3,49.6,14.9c16.1,7.3,27.1,15,36.7,21.7c16.8,11.7,29.4,20.5,56.2,20.6
	c0.1,0,0.1,0,0.1,0c23.8,0,38.2-9.5,56.1-21.3c12.2-8,26.1-17.2,45.6-24.5c16.4-6.2,29.7-8.6,41.3-10.6c20.2-3.6,35.4-6.3,54.3-25.3
	c16.8-16.8,20.3-33.8,24.6-54.7c3-14.3,6.3-30.5,14.9-49.6c7.3-16.1,15-27.1,21.7-36.7c11.7-16.8,20.5-29.4,20.6-56.1
	c0-0.1,0-0.1,0-0.1C981.1,683.4,971.6,668.9,959.9,651.1z M954.9,759.4c-7,10-14.9,21.3-22.3,37.9c-8.9,19.7-12.3,36.3-15.4,51.1
	c-4,19.5-7.4,35.8-22.7,51.2c-17.3,17.3-32,20-50.6,23.3c-11.9,2.1-25.5,4.5-42.6,11c-20.2,7.6-34.3,16.9-47,25.2
	c-16.6,10.9-30.5,20.1-52.3,20.1v0c0,0-0.1,0-0.1,0c-24.3,0-36.6-8.5-52-19.3c-10-7-21.3-14.8-37.9-22.3
	c-19.7-8.9-36.3-12.3-51-15.4c-19.5-4-35.8-7.4-51.2-22.7c-17.3-17.3-20-32-23.3-50.6c-2.1-12-4.5-25.5-11-42.6
	c-7.6-20.2-16.9-34.3-25.2-47c-11-16.6-20.1-30.6-20.1-52.2c0-0.1,0-0.2,0-0.2c0-24.4,8.5-36.7,19.3-52.1c7-10,14.9-21.3,22.3-37.9
	c8.9-19.7,12.3-36.3,15.4-51.1c4-19.5,7.4-35.8,22.7-51.2c17.3-17.3,32-20,50.6-23.3c11.9-2.1,25.5-4.5,42.6-11
	c20.2-7.6,34.3-16.9,47-25.2c16.6-10.9,30.5-20.1,52.1-20.1c0.1,0,0.2,0,0.2,0c0,0,0,0,0,0c24.4,0,36.7,8.5,52.1,19.3
	c10,7,21.3,14.9,37.9,22.3c19.7,8.9,36.3,12.3,51.1,15.4c19.5,4,35.8,7.4,51.2,22.7c17.3,17.3,20,32,23.3,50.6
	c2.1,11.9,4.5,25.5,11,42.6c7.6,20.2,16.9,34.4,25.2,47c10.9,16.6,20.1,30.5,20.1,52.3h0C974.2,731.7,965.7,743.9,954.9,759.4z
	 M851.7,557.6l0.6-0.6L851.7,557.6L851.7,557.6z"/>
<path class="st1" d="M877.1,534.7c-1.6,2.4-3.1,4.7-5.2,5.8c0.9,0.5,1.9,0.7,3,0.7c2.4,0,5.1-1.1,7.3-3.3c2.2-2.2,3.3-4.9,3.3-7.3
	c0-1.2-0.3-2.3-0.8-3.1C881.3,528.4,879.1,531.6,877.1,534.7z M873.8,874.2c-1.3,0-2.5,0.3-3.4,1c0.5,1.9,2.8,3.5,5.4,5.2
	c2.9,2,6.2,4.2,7.7,7.7c0.6-0.9,0.9-2.1,0.9-3.3c0-2.4-1.1-5.1-3.3-7.2C878.9,875.4,876.2,874.2,873.8,874.2z M456.9,707.4l-0.1-0.4
	L456.9,707.4c-2,0.4-4.2,0.8-6.3,0.8c-1.5,0-3.1-0.2-4.6-0.8c0.6,3.2,4.5,5.8,9.2,5.8c4.8,0,8.6-2.7,9.2-5.9
	c-0.7-0.4-1.6-0.6-2.6-0.6C460.3,706.7,458.7,707,456.9,707.4z M874.7,882.1c-2.4-1.6-4.6-3.1-5.8-5.2c-0.5,0.9-0.7,1.9-0.7,3
	c0,2.4,1.1,5.1,3.3,7.3c2.2,2.2,4.9,3.3,7.2,3.3c1.2,0,2.3-0.3,3.2-0.8C880.9,886.3,877.7,884.1,874.7,882.1z M947.8,708.9l-0.1-0.4
	L947.8,708.9c-1.9,0.4-3.7,0.7-5.3,0.7c-0.8,0-1.7-0.1-2.4-0.3c0.8,3,4.6,5.4,9.1,5.4c4.6,0,8.4-2.5,9.1-5.6c-1.4-0.7-2.9-1-4.5-1
	C951.8,708.1,949.8,708.5,947.8,708.9z M947.4,706.9c2-0.4,4.2-0.8,6.3-0.8c1.5,0,3.1,0.2,4.5,0.8c-0.6-3.2-4.5-5.8-9.2-5.8
	c-4.8,0-8.6,2.7-9.2,5.9c0.7,0.4,1.6,0.5,2.6,0.5C944,707.6,945.7,707.3,947.4,706.9z M699.7,947.5c0-0.8,0.1-1.6,0.3-2.4
	c-3,0.9-5.4,4.6-5.4,9.1c0,4.6,2.5,8.4,5.6,9.1c0.7-1.4,1-2.9,1-4.5c0-1.9-0.4-4-0.8-5.9C700.1,951,699.7,949.1,699.7,947.5z
	 M875.4,533.5c2-2.9,4.1-6.2,7.7-7.7c-0.9-0.6-2.1-0.9-3.3-0.9c-2.4,0-5.1,1.1-7.2,3.3c-2.2,2.2-3.3,4.9-3.3,7.3
	c0,1.3,0.3,2.5,1,3.4C872.2,538.4,873.7,536.1,875.4,533.5z M702.1,469.3c0.4-0.7,0.5-1.6,0.5-2.6c0-1.4-0.3-3.1-0.7-4.9
	c-0.4-2-0.8-4.2-0.8-6.3c0-1.5,0.2-3.1,0.8-4.5c-3.2,0.6-5.8,4.5-5.8,9.2C696.1,464.9,698.8,468.8,702.1,469.3z M528.9,880.8
	c-2,3-4.1,6.2-7.7,7.7c0.9,0.6,2.1,0.9,3.3,0.9c2.4,0,5.1-1.1,7.3-3.3c2.2-2.2,3.3-4.9,3.3-7.3c0-1.3-0.3-2.5-1-3.4
	C532.2,876,530.6,878.2,528.9,880.8z M525.6,523.9c-1.2,0-2.3,0.3-3.2,0.8c1,3.4,4.2,5.5,7.2,7.5c2.4,1.6,4.6,3.1,5.8,5.2
	c0.5-0.9,0.7-1.9,0.7-3c0-2.4-1.1-5.1-3.3-7.3C530.7,525,527.9,523.9,525.6,523.9z M702.3,945c-0.4,0.7-0.5,1.6-0.5,2.6
	c0,1.4,0.3,3.1,0.7,4.9c0.4,2,0.8,4.2,0.8,6.3c0,1.5-0.2,3.1-0.8,4.5c3.2-0.6,5.8-4.5,5.8-9.2C708.2,949.4,705.5,945.5,702.3,945z
	 M456.5,705.4c1.9-0.4,3.7-0.7,5.3-0.7c0.8,0,1.6,0.1,2.4,0.3c-0.9-3-4.6-5.4-9.1-5.4c-4.6,0-8.4,2.5-9.1,5.6c1.4,0.7,2.9,1,4.5,1
	C452.5,706.2,454.5,705.8,456.5,705.4z M704.1,451c-0.7,1.4-1,2.9-1,4.5c0,1.9,0.4,4,0.8,5.9c0.4,1.9,0.7,3.7,0.7,5.3
	c0,0.8-0.1,1.6-0.3,2.4c3-0.8,5.4-4.6,5.4-9.1C709.7,455.5,707.2,451.8,704.1,451z M530.5,540.1c1.3,0,2.5-0.3,3.4-1
	c-0.6-1.9-2.8-3.5-5.4-5.2c-2.9-2-6.2-4.2-7.7-7.7c-0.6,0.9-0.9,2.1-0.9,3.3c0,2.4,1.1,5.1,3.3,7.3
	C525.4,538.9,528.1,540.1,530.5,540.1z M527.2,879.7c1.6-2.4,3.1-4.7,5.2-5.8c-0.9-0.5-1.9-0.7-3-0.7c-2.4,0-5.1,1.1-7.2,3.3
	c-2.2,2.2-3.3,4.9-3.3,7.3c0,1.2,0.3,2.2,0.8,3.2C523,885.9,525.2,882.7,527.2,879.7z"/>
<g>
	<g>
		<path d="M9.2,734.8c0-21.8,14.9-53.3,56.8-59.7c16.2-2.5,28.9,0.1,47.1,8.7c4.9-10.2,8.4-19.5,10.7-25.3l31.5-83.1
			c9.1-23.8,31.5-51.9,64-56.9l9.4,26.5c0,0-15.6,7.6-26.3,34.2l-3.9,10.3c26.9,4.6,62.7-16.1,62.7-48.6c0-22.7-17.9-40.1-55.5-34.3
			c-53.2,8.2-82.5,53.3-82.5,82.5c0,14.9,7.5,28.4,7.5,28.4l-34.4,30.9c0,0-14.9-20.4-14.9-51.6c0-57.1,48.4-118.8,125.7-130.7
			c62.3-9.6,100.3,21,100.3,67.1c0,52.6-49.4,71.5-49.4,71.5s30.2,16.5,30.2,59.6c0,39-24.7,88.2-76.9,96.2
			c-28.6,4.4-53.6-5.7-81.5-22.5c-15.6,19-36,34.4-63,38.6C27.1,782.7,9.2,758.2,9.2,734.8z M47.9,725.9c0,9.1,8.8,12,17.2,10.7
			c11-1.7,20.8-10,29.2-21c-10.1-5.6-18.5-8.5-27.6-7.1C54.7,710.3,47.9,718.1,47.9,725.9z M239.8,669.8c0-9.7-3.6-42.3-54.2-45.6
			c-5.5,14.5-11.4,30.3-17.9,45.6c-3.9,10-9.4,22.2-15.9,34.9c14.9,8.7,30.5,15.1,48.1,12.4C227.4,713,239.8,689,239.8,669.8z"/>
		<path d="M492.3,621.9c-22.1,42.4-61.7,91-124,100.5c-45.1,6.9-66.9-11.8-66.9-47.2c0-43.2,32.8-124.5,102.3-135.2
			c36.7-5.6,67.9,13.6,47.1,63.5c-13.6,31.6-39.6,54.5-99.7,55.9c0,0-9.4,35.2,31.8,28.9c33.1-5.1,68.2-32.2,91.2-76.7
			C481,611.4,489.7,616.2,492.3,621.9z M359.9,630.3c29.9,0.6,39.6-14.5,46.1-30.8c4.2-10.4,6.2-19.5-4.9-17.8
			C377.1,585.4,359.9,630.3,359.9,630.3z"/>
		<path d="M682.3,592.8c-26,49.1-57.1,90.3-96.1,96.3c-33.8,5.2-47.7-18.6-24.7-79.7l4.9-12.8c6.2-16.5,11.4-29.7,11.4-34.5
			c0-4.5-3.9-6.5-8.8-5.8c-7.8,1.2-22.7,11-36.4,28.6l-43.8,114.8l-51.6,7.9l68.2-179l44.8,10.3c1.6-1.9,25.6-25.4,53.2-29.6
			c20.5-3.1,31.2,6.3,31.2,23.5c0,8.8-2.9,20.3-9.7,38.2l-15.9,41.1c-14.9,39.6-8.8,42.9-3.2,42.1c13-2,35.4-28.2,58.4-71.6
			C670.9,582.2,679.7,587,682.3,592.8z"/>
		<path d="M875.1,563.1c-25.3,48-56.8,90.2-96.1,96.3c-34.1,5.2-38.3-21.1-38.3-21.1s-22.4,30.4-51.3,34.8
			c-24.4,3.7-36.7-14.2-36.7-36.6c0-36,30.8-139.5,90.3-148.6c30.8-4.7,38.3,20.4,38.3,20.4l35.1-91.8l51.6-7.9l-66.2,173.8
			c-14.9,39.3-8.8,42.9-3.2,42.1c13-2,35.1-28.1,58.4-71.6C863.8,552.6,872.5,557.4,875.1,563.1z M746.6,599.8l21.1-55.2
			c0,0-0.3-18.1-14.6-15.9c-25.7,3.9-49.7,68.3-49.7,89.1c0,8.4,3.9,11.4,10.4,10.4C731.9,625.4,746.6,599.8,746.6,599.8z"/>
		<path d="M972.9,548.1c-25,47.7-57.5,90.3-94.8,96.1c-29.5,4.5-50.3-15.6-26.6-78.1l36.7-96.2l51.6-7.9l-39.9,105.5
			c-14.9,39.3-9.1,43-3.6,42.1c13-2,35.4-28.2,58.4-71.6C961.5,537.5,970.3,542.4,972.9,548.1z M902.1,425.6
			c0-15.9,12.7-30.2,28.6-32.6c15.3-2.3,28.6,7.9,28.6,23.9c0,15.3-13.3,30.6-28.6,33C914.7,452.2,902.1,440.8,902.1,425.6z"/>
		<path d="M1076.1,532.3c-24,45.9-57.1,90.3-98.1,96.6c-32.1,4.9-52.3-16-28.9-77.7l36.7-96.2l-26.9,4.1l10.7-27.6l26.6-4.1
			l15.6-40.7l51.6-7.9l-15.6,40.7l26-4l-10.7,27.6l-25.6,3.9l-39.9,105.5c-15.3,39.4-8.1,42.8-1,41.7c15.9-2.4,38-28.9,61.4-72.1
			C1064.7,521.7,1073.5,526.5,1076.1,532.3z"/>
		<path d="M1269.3,502.6c-25.3,48-56.8,90.2-96.4,96.3c-33.8,5.2-38-21.1-38-21.1s-22.4,30.4-51,34.8c-24.4,3.7-36.7-13.5-36.7-36.9
			c0-34.7,27.6-138.7,89.6-148.2c31.5-4.8,38.6,20.4,38.6,20.4l60.7-31.4L1195.9,522c-14.6,38.9-9.1,43-3.2,42.1
			c13-2,35.1-28.1,58.4-71.6C1257.9,492,1266.7,496.8,1269.3,502.6z M1140.7,539.2l21.1-55.2c0,0-0.3-18.1-14.6-15.9
			c-25.6,3.9-49.7,68.3-49.7,89.1c0,8.4,3.9,11.4,10.4,10.4C1125.8,564.9,1140.7,539.2,1140.7,539.2z"/>
	</g>
	<g>
		<path d="M522.4,1191.3c12.5-2.5,27.3,1.5,33,17.1c-5.2,1.1-9.9,2-15.1,3.1c-3.4-5.7-8.5-7.5-15-6.2c-9,1.8-13.6,9.8-11.5,19.8
			c1.8,8.9,9.2,15.4,18.4,13.6c6.5-1.3,11.1-5.7,11.4-12.5c5.2-1.1,9.9-2,15.1-3.1c1.2,17.5-10.9,26.9-23.7,29.6
			c-15.3,3.2-32.9-3.9-37.1-24.4C493.7,1208,507.1,1194.5,522.4,1191.3z"/>
		<path d="M579,1213.3c-4-42.3,58.7-48.2,62.7-5.9C645.7,1249.7,583,1255.7,579,1213.3z M625.7,1208.9c-2.1-22-32.7-19.1-30.7,2.9
			C597.2,1234,627.8,1231.1,625.7,1208.9z"/>
		<path d="M682.9,1217l0.4,19.9c-5.3,0.1-10.6,0.2-16,0.3l-1.2-61.4c12.5-0.2,25.7-0.5,38.2-0.7c0.1,5.2,0.2,8.8,0.3,14l-22.3,0.4
			l0.3,13.4l19.7-0.4c0.1,5.3,0.2,8.6,0.3,14L682.9,1217z"/>
		<path d="M745.6,1217.6l-0.8,19.9c-5.3-0.2-10.6-0.4-16-0.7l2.6-61.4c12.5,0.5,25.7,1.1,38.2,1.6c-0.2,5.2-0.4,8.8-0.6,14
			l-22.3-0.9l-0.6,13.4l19.7,0.8c-0.2,5.3-0.4,8.6-0.6,14L745.6,1217.6z"/>
		<path d="M833.4,1197.3c-9.1-1-13.6-1.5-22.6-2.5l-1,8.6l20.8,2.3c-0.5,4.6-1,9.2-1.5,13.9l-20.8-2.3c-0.4,3.6-0.8,7.1-1.2,10.7
			c9,1,14.2,1.6,23.4,2.6c-0.5,4.5-1,9.2-1.5,13.9c-14.3-1.6-24.8-2.7-38.9-4.3c2.2-20.4,4.5-40.8,6.7-61
			c14.1,1.6,23.8,2.6,38.1,4.2C834.4,1187.9,833.9,1192.6,833.4,1197.3z"/>
		<path d="M899.8,1209.1c-9-1.8-13.4-2.7-22.3-4.4l-1.7,8.5l20.5,4.1c-0.9,4.6-1.8,9.1-2.7,13.7l-20.5-4.1c-0.7,3.5-1.4,7-2.1,10.6
			c8.9,1.8,14,2.8,23.1,4.6c-0.9,4.5-1.8,9.1-2.7,13.7c-14.1-2.8-24.4-4.8-38.4-7.6c4-20.1,8-40.3,12-60.2
			c13.9,2.8,23.5,4.7,37.6,7.5C901.6,1199.8,900.7,1204.4,899.8,1209.1z"/>
	</g>
	<g>
		<path d="M637,1289.8c0-2.4-2.9-2.8-6.3-3c-7.5-0.5-12.4-3.1-12.5-10.6c-0.3-14.9,26.6-14.9,26.4,0c-3.1,0-5.4,0-8.4,0
			c0-4.6-9.3-4.2-9.6-0.1c-0.2,2.6,2.4,3.2,5.5,3.5c6.9,0.7,13.6,1.6,13.6,10.3c0,14.5-28.2,14.9-28-0.3c3,0,5.5,0,8.5,0
			C626.2,1294,637,1293.9,637,1289.8z"/>
		<path d="M687.6,1300.1c-3,0-6,0-9,0v-13.9h-10.7v13.9c-3,0-6.1,0-9,0v-34.6c3,0,6,0,9,0v12.5h10.7v-12.5c3,0,6,0,9,0V1300.1z"/>
		<path d="M701.1,1282.9c0-23.9,35.5-23.9,35.5,0C736.5,1306.9,701.1,1306.9,701.1,1282.9z M727.5,1282.9c0-12.4-17.3-12.4-17.3,0
			C710.2,1295.5,727.5,1295.5,727.5,1282.9z"/>
		<path d="M750,1300.1c0-11.5,0-23,0-34.6c5,0,10.1,0,15.2,0c16.5,0,16.5,25.7,0,25.7h-6.4v8.8
			C755.8,1300.1,752.9,1300.1,750,1300.1z M765.1,1273.5c-2.1,0-4.3,0-6.3,0c0,2.8,0,7.1,0,9.9h6.3
			C770,1283.4,770.3,1273.5,765.1,1273.5z"/>
	</g>
	<g>
		<path d="M414.6,935.1c-33.1,62.6-81.8,108.3-138.3,117c-49,7.5-69.8-18.2-69.8-59.4c0-11.7,1.6-25.2,4.5-40
			c-41.9-7.2-64.6-34.9-64.6-74.2c0-33.8,18.2-63.8,42.5-81.5l24.7,32.2c-0.6,0.4-23.1,13.3-23.1,42.8c0,7.1,1.6,32.5,31.8,38.6
			c24-71.9,73.7-151.6,133.4-160.8c38.6-5.9,57.1,21.1,57.1,54.2c0,29.9-16.6,70.1-52.3,102.2c-22.4,20.3-54.2,38.8-98.1,45.6
			l-1,0.1c-2.9,12.1-4.2,23.7-4.2,32.8c0,15.3,3.9,34.8,31.2,30.6c27.3-4.2,76.6-32.5,107.8-90.6C403.6,924.5,412,929.4,414.6,935.1
			z M274.7,907.3c25-6.1,43.5-18.4,56.8-31.8c21.4-21.8,29.2-46.4,29.2-59c0-8.1-3.2-15.4-13.3-13.9
			C323.7,806.2,293.5,857,274.7,907.3z"/>
		<path d="M607.8,905.4c-25.3,48-56.8,90.2-96.4,96.3c-33.8,5.2-38-21.1-38-21.1s-22.4,30.4-51,34.8c-24.4,3.7-36.7-13.5-36.7-36.9
			c0-34.7,27.6-138.7,89.6-148.2c31.5-4.8,38.6,20.4,38.6,20.4l60.7-31.4l-40.3,105.5c-14.6,38.9-9.1,43-3.2,42.1
			c13-2,35.1-28.1,58.4-71.6C596.5,894.9,605.2,899.7,607.8,905.4z M479.2,942.1l21.1-55.2c0,0-0.3-18.1-14.6-15.9
			c-25.7,3.9-49.7,68.3-49.7,89.1c0,8.4,3.9,11.4,10.4,10.4C464.3,967.8,479.2,942.1,479.2,942.1z"/>
		<path d="M749.4,883.7c-24,47.5-57.8,75.8-103.9,81.2c0,0,0.6,9-0.7,18.9c-2.6,19.2-9.4,43-20.5,63.2
			c-12.3,21.7-29.9,39.7-55.2,43.5c-32.1,4.9-47.4-18.4-30.5-62.8l90.3-238.2c19.8-53.4,42.2-75.3,73.7-80.2
			c35.4-5.4,44.5,22.7,37.3,50.8c-3.6,14.5-12.7,49.7-39.9,103.5c-16.6,33.1-30.2,49.8-72.4,57.5l-5.8,14.9c6.2,4.6,15.3,8,28.2,6.1
			c34.1-5.2,58.8-25.9,81.2-68.6C738,873.1,746.8,877.9,749.4,883.7z M612.4,961.2l-29.9,78.3c-5.2,14.8-4.5,17.9,0.3,17.2
			c19.5-2.7,32.8-48.5,37.3-70.7C623.7,968.3,619.5,962.4,612.4,961.2z M674.7,797.8L637,896.4c16.2-4.8,22.7-15.2,34.4-38.4
			c24-48.5,32.5-74.5,36.4-88.4c2.6-9.5,5.2-22.6-1.6-21.5C694.8,749.9,683.8,774,674.7,797.8z"/>
		<path d="M915.3,858.2c-22.1,42.4-61.7,91-124,100.5c-45.1,6.9-66.9-11.8-66.9-47.2c0-43.2,32.8-124.5,102.3-135.2
			c36.7-5.6,67.9,13.6,47.1,63.5c-13.6,31.6-39.6,54.5-99.7,55.9c0,0-9.4,35.2,31.8,28.9c33.1-5.1,68.2-32.2,91.2-76.7
			C903.9,847.6,912.7,852.5,915.3,858.2z M782.8,866.6c29.9,0.6,39.6-14.5,46.1-30.8c4.2-10.4,6.2-19.5-4.9-17.8
			C800,821.7,782.8,866.6,782.8,866.6z"/>
		<path d="M1013,843.2c-25,47.7-57.5,90.3-94.8,96.1c-29.5,4.5-50.3-16-26.6-78.1l36.7-96.2l51.6-7.9L940,862.5
			c-15.3,39.7-9.1,43-3.6,42.1c13-2,35.4-28.2,58.4-71.6C1001.6,832.6,1010.4,837.4,1013,843.2z M1031.8,682.2l-58.1,59.3l-39.6,6.1
			l43.2-57L1031.8,682.2z"/>
		<path d="M1202.9,814c-26,49.1-57.1,90.3-96.1,96.3c-33.8,5.2-47.7-18.6-24.7-79.7l4.9-12.8c6.2-16.5,11.4-29.7,11.4-34.5
			c0-4.5-3.9-6.5-8.8-5.8c-7.8,1.2-22.7,11-36.4,28.6L1009.4,921l-51.6,7.9l68.2-179l44.8,10.3c1.6-1.9,25.6-25.4,53.2-29.6
			c20.5-3.1,31.2,6.3,31.2,23.5c0,8.8-2.9,20.3-9.7,38.2l-15.9,41.1c-14.9,39.6-8.8,42.9-3.2,42.1c13-2,35.4-28.2,58.4-71.6
			C1191.6,803.4,1200.3,808.3,1202.9,814z"/>
		<path d="M1396.1,784.4c-25.3,48-56.8,90.2-96.4,96.3c-33.8,5.2-38-21.1-38-21.1s-22.4,30.4-51,34.8c-24.4,3.7-36.7-13.5-36.7-36.9
			c0-34.7,27.6-138.7,89.6-148.2c31.5-4.8,38.6,20.4,38.6,20.4l60.7-31.4l-40.3,105.5c-14.6,38.9-9.1,43-3.2,42.1
			c13-2,35.1-28.1,58.4-71.6C1384.8,773.8,1393.5,778.6,1396.1,784.4z M1267.6,821l21.1-55.2c0,0-0.3-18.1-14.6-15.9
			c-25.6,3.9-49.7,68.3-49.7,89.1c0,8.4,3.9,11.4,10.4,10.4C1252.6,846.7,1267.6,821,1267.6,821z"/>
	</g>
	<path d="M717.4,105.8c1.8-1.5,4.3-1.1,5.7,0.8c1.4,1.9,1.1,4.7-0.7,6.2c0,0-13.7,11.1-2.6,22.8c1.4,1.4,2.6,2.9,3.7,4.3
		c5.5,7.2,7.5,14,7.3,20.1c-0.2,6.3-2.7,11.6-6.4,15.6c-0.6,0.7-1.2,1.3-2,1.9c-1.7,1.5-4.3,1.3-5.8-0.6c-1.4-1.9-1.2-4.7,0.6-6.2
		c0.4-0.4,0.9-0.8,1.3-1.3c2.3-2.5,3.9-5.8,4-9.7c0.1-4.1-1.4-8.9-5.4-14.2c-0.9-1.2-1.9-2.4-3.2-3.7
		C696.2,123,717.4,105.9,717.4,105.8 M688,105.8c1.8-1.5,4.4-1.1,5.7,0.8c1.4,1.9,1.1,4.7-0.7,6.2c-0.1,0-13.7,11.1-2.6,22.8
		c1.4,1.4,2.6,2.9,3.7,4.3c5.5,7.2,7.5,14,7.3,20.1c-0.2,6.3-2.8,11.6-6.3,15.6c-0.6,0.7-1.3,1.3-2,1.9c-1.7,1.5-4.3,1.3-5.8-0.6
		c-1.4-1.9-1.2-4.7,0.6-6.2c0.5-0.4,0.9-0.8,1.3-1.3c2.3-2.5,3.9-5.8,4-9.7c0.1-4.1-1.4-8.9-5.5-14.2c-0.9-1.2-1.9-2.4-3.1-3.7
		C666.8,123,687.9,105.9,688,105.8z M658.5,105.8c1.8-1.5,4.4-1.1,5.8,0.8c1.4,1.9,1.1,4.7-0.7,6.2c0,0-13.7,11.1-2.7,22.8
		c1.4,1.4,2.6,2.9,3.7,4.3c5.5,7.2,7.5,14,7.3,20.1c-0.2,6.3-2.7,11.6-6.3,15.6c-0.6,0.7-1.3,1.3-1.9,1.9c-1.8,1.5-4.3,1.3-5.8-0.6
		c-1.4-1.9-1.2-4.7,0.6-6.2c0.5-0.4,0.9-0.8,1.3-1.3c2.2-2.5,3.9-5.8,4-9.6c0.1-4.1-1.4-8.9-5.4-14.2c-0.9-1.2-2-2.4-3.2-3.7
		C637.4,123,658.5,105.9,658.5,105.8z"/>
	<path d="M816.2,233.4L816.2,233.4c-2.5-2.6-5.6-4.6-9-6c-3.3-1.3-6.8-2.1-10.6-2.1l-0.1,0l-1.1,0h-0.3l-1,0.1l-4.8,0.3v4.7v27.2
		c0,2.9-0.1,5.7-0.3,8.4c-0.2,2.8-0.6,5.6-1.1,8.3l-0.9,5l5.1,0.8c0.8,0.1,1.5,0.2,2.2,0.3c0.7,0.1,1.5,0.1,2.2,0.1
		c3.7,0,7.3-0.8,10.6-2.1c2.7-1.1,5.2-2.7,7.4-4.5h0.1l1.5-1.5c2.5-2.5,4.6-5.6,6-9c1.4-3.3,2.1-6.9,2.1-10.6
		c0-3.7-0.7-7.3-2.1-10.6C820.8,239,818.7,235.9,816.2,233.4z M812.8,259.7c-0.8,1.8-1.8,3.5-3.1,4.9l-0.7,0.7
		c-1.6,1.6-3.6,2.9-5.7,3.8c-1.4,0.6-2.9,1-4.5,1.2c0.1-1.1,0.2-2.3,0.3-3.4c0.3-3.1,0.4-6.1,0.4-9.2v-22c1.3,0.2,2.6,0.6,3.8,1.1
		c2.1,0.9,4,2.2,5.7,3.8l0,0c1.6,1.6,2.9,3.5,3.8,5.6c0.8,2,1.3,4.3,1.3,6.7C814.1,255.4,813.6,257.7,812.8,259.7z M843.4,253
		c0-6.3-1.3-12.3-3.6-17.9c-2.3-5.7-5.9-10.9-10.2-15.2v0l0,0l0,0l0,0c-4.3-4.3-9.5-7.8-15.2-10.1c-4.6-1.9-9.6-3.1-14.9-3.5v-5
		v-5.1h-5.1H588.3h-5.1v5.1v56.4c0,16.6,3.8,32.4,10.6,46.6c6.8,14.1,16.6,26.4,28.4,36.3c-38.1,2.9-63.5,8.2-63.5,14.2
		c0,9.3,60.1,16.8,134.3,16.8c74.2,0,134.3-7.5,134.3-16.8c0-6.2-26.9-11.6-66.7-14.4c6.7-5.6,12.9-12,18.1-19.1
		c4.9-6.8,9.1-14.1,12.4-21.9l0.6,0.1c1.7,0.2,3.3,0.3,4.9,0.3c6.3,0,12.4-1.3,17.9-3.6h0c5.7-2.4,10.9-5.9,15.2-10.2l3.6-3.6
		l-0.2-0.2c2.8-3.4,5.1-7.3,6.8-11.4C842.1,265.3,843.4,259.3,843.4,253z M830.5,266.9c-1.9,4.5-4.6,8.5-8,11.9l-0.7,0.7
		c-3.2,3.1-7,5.6-11.2,7.3v0c-4.3,1.8-9,2.7-14,2.7c-1.4,0-2.7-0.1-3.8-0.2c-1.2-0.1-2.5-0.3-3.8-0.6l-4.3-0.9l-1.5,4.1
		c-3.2,8.4-7.4,16.2-12.6,23.3c-5.2,7.2-11.5,13.7-18.5,19.2c-8,6.4-17.2,9.7-27.2,11.4c-10.3,1.8-21.6,1.9-33.5,1.9
		c-12,0-23.4-0.1-33.9-2c-10.1-1.8-19.4-5.2-27.4-11.7c-11.4-9.2-20.7-20.9-27.1-34.1c-6.1-12.8-9.6-27.1-9.6-42.2v-51.3h196v5v5.3
		l5.3-0.2l1.1,0l0.9,0v0c5,0,9.7,1,14,2.8c4.5,1.8,8.5,4.5,11.8,7.9l0.1,0.1l0,0l0,0c3.4,3.4,6.1,7.4,8,11.9c1.8,4.3,2.8,9,2.8,14
		C833.2,257.9,832.2,262.7,830.5,266.9z M634.8,296.8L634.8,296.8c-5.8-12.1-8.9-25.3-8.9-39.1v-35.3v-5.1h-15.2h-5.2v5.1v31.9
		l0.2,0c4.6-0.4,9,6.5,9.8,15.4c0.7,7.8-1.7,14.6-5.4,16.4c1.2,3.6,2.6,7.2,4.3,10.6h0c5.8,12.1,14.3,22.9,25,31.5
		c15.1,12.1,36.9,12.1,54.7,12.1v0h2.1v0h2.6c2.7,0,5.4,0,8.2,0c-16.1-0.2-34.2-1.6-47.1-12.1C649.2,319.7,640.7,308.9,634.8,296.8z
		"/>
</g>
</svg>
